# xmcd
#
# Track frame offsets:
# 150
# 14236
# 25862
# 40338
# 54963
# 68494
# 79982
# 96810
# 109618
# 120873
# 149246
#
# Disc length: 2184 seconds
#
#
# Revision: 0
# Processed by: cddbd v1.5.2PL0 Copyright (c) Steve Scherf et al.
# Submitted via: FreeRIP 2.951 
#
DISCID=9008860b
DTITLE=Various Artist - R&B: Always and Forever
DYEAR=2005
DGENRE=R&B
TTITLE0=Backstabbers
TTITLE1=Porgy
TTITLE2=:ast Night I Didn't Sleep at All
TTITLE3=Warm and Tender Love
TTITLE4=Along Came Jones
TTITLE5=Twist and Shout
TTITLE6=Young Hearts Run Free
TTITLE7=You Little Trustmaker
TTITLE8=Another Saturday Night
TTITLE9=Always and Forever
TTITLE10=Let's Stay Together
EXTD=
EXTT0=The O'jays
EXTT1=Nina Simone
EXTT2=Fifth Dimension
EXTT3=Percy Sledge
EXTT4=The Coasters
EXTT5=Isley Brothers
EXTT6=Candi Staton
EXTT7=TheTymes
EXTT8=Sam and Dave
EXTT9=Heatwave
EXTT10=
PLAYORDER=
